<svg viewBox="0 0 280 280" xmlns="http://www.w3.org/2000/svg" id="Layer_1"><defs><style>.cls-1{fill:#fff;stroke:#ef9100;stroke-width:4px;}.cls-1,.cls-3{stroke-miterlimit:10;}.cls-2{fill:#f4dd47;}.cls-3{fill:none;stroke:#231815;stroke-width:0.73px;}.cls-4{fill:#a87000;}</style></defs><circle r="130" cy="142.33" cx="136.86" class="cls-1"></circle><path d="M182.81,130.84a7,7,0,0,1-1.45-3c-.36-1.34-.76-2.67-1.21-4,.83-.46,1.63-1,2.37-1.47,6.32-4.35,13.3-10.06,20.7-8,17.63,4.88,5.42,31.44.1,41.29-11.72,21.69-33.3,33-57.36,34.76-17.57,1.27-28.54,1.19-46.52-5.65C82.2,178.27,63.82,154.48,64,136c0-3.22.54-6.63,2.62-9.1,4.65-5.57,13.72-3.14,19.92.65,5.24,3.19,11,7.17,16.83,7A31.45,31.45,0,0,0,104,142v0A93.24,93.24,0,0,0,182.81,130.84Z" class="cls-2"></path><path d="M149.08,99.67c9.23.52,18.42,4.47,24.34,11.57a38.73,38.73,0,0,1,6.73,12.67c.45,1.31.85,2.64,1.21,4a7,7,0,0,0,1.45,3A93.24,93.24,0,0,1,104,142v0a31.45,31.45,0,0,1-.58-7.38,32,32,0,0,1,9.22-21.35,42.69,42.69,0,0,1,9.89-7C130.64,101.82,139.86,99.14,149.08,99.67Z" class="cls-2"></path><path d="M104,142a31.45,31.45,0,0,1-.58-7.38,32,32,0,0,1,9.22-21.35,42.69,42.69,0,0,1,9.89-7c8.13-4.37,17.35-7,26.57-6.52s18.42,4.47,24.34,11.57a38.73,38.73,0,0,1,6.73,12.67c.45,1.31.85,2.64,1.21,4a7,7,0,0,0,1.45,3h0" class="cls-3"></path><path d="M180.15,123.91c.83-.46,1.63-1,2.37-1.47,6.32-4.35,13.3-10.06,20.7-8,17.63,4.88,5.42,31.44.1,41.29-11.72,21.69-33.3,33-57.36,34.76-17.57,1.27-28.54,1.19-46.52-5.65C82.2,178.27,63.82,154.48,64,136c0-3.22.54-6.63,2.62-9.1,4.65-5.57,13.72-3.14,19.92.65,5.24,3.19,11,7.17,16.83,7" class="cls-3"></path><path d="M73.92,129.87a50.6,50.6,0,0,0,33.77,25.56c8.42,1.8,17.14,1.38,25.7.49,26.34-2.72,54.23-11.15,70-32.45" class="cls-3"></path><path d="M98.28,139.93c1.88.75,3.77,1.44,5.69,2.06a93.24,93.24,0,0,0,78.84-11.15c2.3-1.54,4.53-3.18,6.67-4.94" class="cls-3"></path><path d="M105.13,141.66A32,32,0,0,1,109,119.29c4-6.8,10.68-11.3,17.77-14.51,7.39-3.34,15.59-5.2,23.71-4.31a34,34,0,0,1,19.44,8.63,32.67,32.67,0,0,1,7.31,10.54,53.35,53.35,0,0,1,2.27,6.11c.59,1.9.9,4,2.25,5.55.51.59,2.71-.23,2.13-.9-1.35-1.55-1.62-3.81-2.22-5.71a53.82,53.82,0,0,0-2.22-5.86,33.92,33.92,0,0,0-6.55-9.8,35,35,0,0,0-19.95-9.67,48.54,48.54,0,0,0-24.6,3.42c-7.48,3-15,7.36-19.81,13.94a32.92,32.92,0,0,0-5.69,25.56c.15.78,2.45.22,2.29-.62Z" class="cls-4"></path><path d="M180.86,124.24c5.15-2.87,9.5-7.33,15.26-9a11.89,11.89,0,0,1,11.8,2.91c4.92,5,3.5,13.41,1.83,19.5a85.22,85.22,0,0,1-8.23,19.4,62.84,62.84,0,0,1-20.42,21.66A71.55,71.55,0,0,1,153.43,189a137.59,137.59,0,0,1-16.6,1.36,93.61,93.61,0,0,1-15.88-.6,86.86,86.86,0,0,1-16.53-4A50.91,50.91,0,0,1,90.8,179a68,68,0,0,1-19.92-23,50.47,50.47,0,0,1-5-13.33c-1-4.7-1.55-10.89,1.33-15.05,3-4.32,8.68-3.62,13-2.06,5.38,1.92,9.77,5.76,15,8a19.08,19.08,0,0,0,7.72,1.71c.44,0,1.31-.15,1.51-.63s-.16-.68-.62-.67c-6.64.08-12-4.58-17.56-7.61-4.28-2.34-9.47-4-14.37-3-11.55,2.27-9.75,16.81-6.89,25.17A66.61,66.61,0,0,0,82.77,175a53.62,53.62,0,0,0,12.32,8.82,76.77,76.77,0,0,0,16.82,5.73c11.28,2.68,22.78,2.37,34.26,1.49a80.31,80.31,0,0,0,30.57-8.38,65.49,65.49,0,0,0,23.31-20,84,84,0,0,0,10.81-21.51c2.24-6.54,4.56-15.26.86-21.72a12.61,12.61,0,0,0-8.58-5.84c-5.71-1.17-11.23,1.66-15.86,4.7-2.62,1.73-5.09,3.72-7.84,5.25-.4.22-.59.6-.2.89s1.25,0,1.62-.21Z" class="cls-4"></path><path d="M73.46,130A22.55,22.55,0,0,0,77,136.13a49,49,0,0,0,4.36,5.27,51,51,0,0,0,11.15,8.84c9.27,5.43,19.77,7.36,30.44,7a159.81,159.81,0,0,0,30.57-4,111.63,111.63,0,0,0,26.95-9.61c9.29-4.84,18-11.51,24.13-20.07.74-1-1.84-1-2.37-.29a69.23,69.23,0,0,1-20.36,17.85,100.59,100.59,0,0,1-25.3,10.06,158.16,158.16,0,0,1-28.69,4.55c-10.69.74-21.34-.1-31.07-4.89a51.31,51.31,0,0,1-12.84-9,50.78,50.78,0,0,1-5-5.62c-1.61-2.1-2.89-4.42-4.5-6.52-.11-.14-1,.11-.92.25Z" class="cls-4"></path><path d="M97.69,140.14a85.61,85.61,0,0,0,37.61,6.6,96.17,96.17,0,0,0,37.23-9.27,94.94,94.94,0,0,0,9.38-5.17c2.92-1.85,6.17-3.8,8.5-6.37.6-.65-1.28-.45-1.53-.3-2.67,1.57-5,3.66-7.62,5.36a87.46,87.46,0,0,1-8,4.66,88.92,88.92,0,0,1-17.06,6.59,95,95,0,0,1-36.77,2.57,93.33,93.33,0,0,1-20.55-5.08c-.31-.11-1.3.35-1.18.41Z" class="cls-4"></path></svg>