<svg viewBox="0 0 280 280" xmlns:xlink="http://www.w3.org/1999/xlink" xmlns="http://www.w3.org/2000/svg" id="Layer_1"><defs><style>.cls-1,.cls-2{fill:#fff;}.cls-1,.cls-9{stroke:#ef9100;stroke-width:4px;}.cls-1,.cls-7,.cls-9{stroke-miterlimit:10;}.cls-3{clip-path:url(#clip-path);}.cls-4{fill:#ff7057;}.cls-5{fill:#d64949;}.cls-6{fill:#ebfffc;}.cls-7,.cls-9{fill:none;}.cls-7{stroke:#aa001b;stroke-width:0.67px;}.cls-8{fill:#e37f7f;}</style><clipPath id="clip-path"><circle r="130" cy="142.33" cx="141.42" class="cls-1"></circle></clipPath></defs><circle r="130" cy="142.33" cx="141.42" class="cls-2"></circle><g class="cls-3"><g id="燈籠"><path d="M152.31,137.18q.57-3.21,1.15-6.44a33.73,33.73,0,0,0-2.86-2c1.15-.28,2.28-.6,3.4-1a41.92,41.92,0,0,0,12.64-6.51c6.17-4.75,10.85-11.64,12.16-19.32A46.14,46.14,0,0,0,178.9,90a155.24,155.24,0,0,0-3.12-19.89,55.61,55.61,0,0,1,6.2,5.69c8.13,8.71,13.2,20.89,11.14,32.63-1.65,9.36-7.76,17.66-15.78,22.74a44.6,44.6,0,0,1-25.13,6.5C152.25,137.53,152.28,137.36,152.31,137.18Z" class="cls-4"></path><path d="M178.9,90a46.14,46.14,0,0,1-.1,11.86c-1.31,7.68-6,14.57-12.16,19.32A41.92,41.92,0,0,1,154,127.73c-1.12.37-2.25.69-3.4,1h0a47.15,47.15,0,0,0-10.61-5c5.88-4.27,10.18-11.1,13.36-17.83,5.83-12.3,9.69-26.13,7.25-39.52-.37-2-.87-4-1.24-6a82.25,82.25,0,0,1,15.54,9.17c.3.22.6.45.89.69A155.24,155.24,0,0,1,178.9,90Z" class="cls-4"></path><path d="M176.35,66c-.31.78-.64,1.58-1,2.36h0l-.48,1.11a82.25,82.25,0,0,0-15.54-9.17c-2.45-1.15-4.95-2.2-7.46-3.19a118.63,118.63,0,0,0-11.93-4,78.2,78.2,0,0,0-16.58-2.89l.09-.19c.37-.86.76-1.71,1.16-2.54A110.25,110.25,0,0,1,146,50.1c1.2.27,2.35.56,3.49.87h0a65,65,0,0,1,7,2.29A58.57,58.57,0,0,1,174.3,64.11C175,64.71,175.68,65.33,176.35,66Z" class="cls-5"></path><path d="M170.48,2.51a25.39,25.39,0,0,0,4.93.34c-.74,15.54-2.56,31.89-12,44.18a22.34,22.34,0,0,1-7,6.23,65,65,0,0,0-7-2.29c8-4.45,13.71-12.71,16.73-21.48S170,11.65,170.48,2.51Z" class="cls-5"></path><path d="M160.59,66.32c2.44,13.39-1.42,27.22-7.25,39.52-3.18,6.73-7.48,13.56-13.36,17.83a60.22,60.22,0,0,0-7.23-1.94c-2.37-.49-4.76-.85-7.16-1.12-4.76-11.9-7.35-24.92-5.22-37.54,2-12.17,9-23.86,19.59-30a118.63,118.63,0,0,1,11.93,4c2.51,1,5,2,7.46,3.19C159.72,62.31,160.22,64.31,160.59,66.32Z" class="cls-4"></path><path d="M153.46,130.74q-.59,3.22-1.15,6.44c0,.18-.06.35-.1.53-.09.51-.17,1-.27,1.54l-1.5-.53L144,136.45c-14.29-5-29.6-10.08-44.31-7.5l-.37-.38c.63-1.8,1.33-3.58,2.08-5.34.47-1.12,1-2.23,1.49-3.33a19.32,19.32,0,0,1,4.1-.24l4.48.1c4.74.12,9.48.31,14.17.85,2.4.27,4.79.63,7.16,1.12a60.22,60.22,0,0,1,7.23,1.94,47.15,47.15,0,0,1,10.61,5h0A33.73,33.73,0,0,1,153.46,130.74Z" class="cls-5"></path><path d="M123.55,134.81a25.68,25.68,0,0,1-1.61,4.05,70,70,0,0,1-13.54-4.4A29.18,29.18,0,0,1,99.64,129c14.71-2.58,30,2.49,44.31,7.5l6.49,2.27a13.52,13.52,0,0,1-4.65,1.28,71.17,71.17,0,0,1-20.91-.56,4.54,4.54,0,0,0,.88-2.3c0-1.12-.83-2.35-1.94-2.25Z" class="cls-5"></path><path d="M123.38,50.17A78.2,78.2,0,0,1,140,53.06c-10.59,6.15-17.54,17.84-19.59,30-2.13,12.62.46,25.64,5.22,37.54-4.69-.54-9.43-.73-14.17-.85a81.85,81.85,0,0,1-10.53-23,49.28,49.28,0,0,1-2-10.82,35.91,35.91,0,0,1,24-35.81Z" class="cls-4"></path><path d="M123.82,134.89c1.11-.1,2,1.13,1.94,2.25a4.54,4.54,0,0,1-.88,2.3c-.16.24-.32.48-.5.72q-1.48,2-3.08,4a3.47,3.47,0,0,0-1.29-1.57l-.22-.13a26.52,26.52,0,0,0,3.76-7.64Z" class="cls-5"></path><path d="M121.3,144.15a5.15,5.15,0,0,1,.38,2.52,12.49,12.49,0,0,1-1.55,4.34c-.84,1.69-1.81,3.52-3.55,4.28a4.21,4.21,0,0,1-1.7.35,5,5,0,0,1-1.21-.15,3.89,3.89,0,0,1-.58-.18,6.72,6.72,0,0,1-1.54-.77,8.36,8.36,0,0,1-1-.74c-.15-.14-.29-.27-.43-.42-.31-.33-.63-.71-1-1.06l-.36-.37a33.73,33.73,0,0,1,3.84-6.36c1.71-2.25,4.69-4.47,7.1-3.14l.22.13A3.47,3.47,0,0,1,121.3,144.15Z" class="cls-6"></path><path d="M107.19,51.69a51.4,51.4,0,0,1,15.75-1.54A35.91,35.91,0,0,0,98.94,86a49.28,49.28,0,0,0,2,10.82,81.85,81.85,0,0,0,10.53,23l-4.48-.1a19.32,19.32,0,0,0-4.1.24c-.53,1.1-1,2.21-1.49,3.33a43.31,43.31,0,0,1-14-17.7C82.74,95.32,78,81.16,83.24,70.62,87.88,61.28,97.19,54.33,107.19,51.69Z" class="cls-4"></path><path d="M77.3,190.11a59.14,59.14,0,0,0-6.08,10.51v0a63.38,63.38,0,0,0-3.7,10.62c-2.61,10.44-2.21,20.92,2.55,27.85l.23,0c.21,1.63.43,3.26.63,4.89l-.18,0c-3.55-3-6.74-8.42-7.21-12h0c-.34-1.64-.59-3.29-.79-5a57.16,57.16,0,0,1,23.37-53c8.9-6.41,19.9-10.51,27-18.68a3.89,3.89,0,0,0,.58.18c-4.42,7.92-12,13.43-19.52,19-2.67,2-5.35,4-7.89,6.15-1.53,1.28-3,2.62-4.41,4A46.23,46.23,0,0,0,77.3,190.11Z" class="cls-5"></path><path d="M111.55,154.54a6.72,6.72,0,0,0,1.54.77C106,163.48,95,167.58,86.12,174a57.16,57.16,0,0,0-23.37,53c.2,1.67.45,3.32.79,5a48.21,48.21,0,0,1-2.31-7.32v0a48.62,48.62,0,0,1-.33-20.83A49.13,49.13,0,0,1,81.79,173C91.59,166.58,104.16,163.29,111.55,154.54Z" class="cls-5"></path><path d="M110.6,153.8a8.36,8.36,0,0,0,1,.74c-7.39,8.75-20,12-29.76,18.48a49.13,49.13,0,0,0-20.9,30.78,48.62,48.62,0,0,0,.33,20.83,36.24,36.24,0,0,1-5.17-19.45c.31-10.49,5.26-20.54,12.55-28.07a55.33,55.33,0,0,1,7.26-6.24h0a70.49,70.49,0,0,1,19.51-9.65C100.78,159.46,106.93,157.77,110.6,153.8Z" class="cls-5"></path><path d="M108.42,152.89c.27-.18.53-.38.79-.57.33.35.65.73,1,1.06.14.15.28.28.43.42-3.67,4-9.82,5.66-15.22,7.41a70.49,70.49,0,0,0-19.51,9.65,36.81,36.81,0,0,1,13.65-10.37C95.73,157.78,103,156.62,108.42,152.89Z" class="cls-5"></path><path d="M102,270.79c.34,3.81.42,8.45-1.2,12.11.05-1.76-.16-3.61-.24-5h0c1.38-4.28.44-9.68-.54-13.68a40.07,40.07,0,0,0-7.82-15.73c-1.81-2.21-3.9-4.27-5.49-6.64-.72-2.58-1.34-5.19-1.82-7.82,5.17,7.3,10.32,14.7,13.68,23A47.11,47.11,0,0,1,102,270.79Z" class="cls-5"></path><path d="M95.05,267.6q-3.66-7.69-7.68-15.22l0,0h0q-1.59-5.23-3.17-10.49v-.05a79.76,79.76,0,0,1,2.09-61.12c2.54-2.14,5.22-4.16,7.89-6.15a91.54,91.54,0,0,0-9.24,59.51h0c.48,2.63,1.1,5.24,1.82,7.82A84.41,84.41,0,0,0,90,251.44h0c1.09,1.52,2.24,3,3.27,4.57a44.49,44.49,0,0,1,7.27,21.92h0c.08,1.35.29,3.2.24,5h0a8,8,0,0,1-1,4.15,7,7,0,0,1-1.21,1.4,17.75,17.75,0,0,0,.59-9.7,46.3,46.3,0,0,0-4-10.74C95.19,267.88,95.12,267.74,95.05,267.6Z" class="cls-5"></path><path d="M100,264.25c1,4,1.92,9.4.54,13.68A44.49,44.49,0,0,0,93.31,256c-1-1.55-2.18-3-3.27-4.57h0a84.41,84.41,0,0,1-3.31-9.56c1.59,2.37,3.68,4.43,5.49,6.64A40.07,40.07,0,0,1,100,264.25Z" class="cls-5"></path><path d="M95.05,267.6a41.12,41.12,0,0,1,1.19,13.8,63.64,63.64,0,0,0-5.35-17.13c-.43-1.59-.9-3.15-1.37-4.72-.72-2.38-1.46-4.78-2.15-7.17Q91.38,259.9,95.05,267.6Z" class="cls-5"></path><path d="M90.89,264.27a43.67,43.67,0,0,1,1.66,9.61c0,.33,0,.65,0,1-1.41-3.14-2.79-6.31-4.11-9.49-.5-1.22-1-2.43-1.49-3.66h0c-2.34-5.88-4.48-11.84-6.26-17.89a143.17,143.17,0,0,1-3.47-14.3c-2.43-13-2.8-26.54.06-39.4a46.23,46.23,0,0,1,4.55-5.39c1.4-1.41,2.88-2.75,4.41-4a79.76,79.76,0,0,0-2.09,61.12v.05q1.57,5.25,3.17,10.49h0l0,0c.69,2.39,1.43,4.79,2.15,7.17C90,261.12,90.46,262.68,90.89,264.27Z" class="cls-5"></path><path d="M79.9,294.36c.93-2.26,1.74-4.6,2.49-6.9,2.73-8.33,5.15-17,4.58-25.75.48,1.23,1,2.44,1.49,3.66a39.81,39.81,0,0,1-.38,9.81c-1,6.57-3.43,12.87-6.06,19-2.2,5.12-5,10.63-10.23,12.63l-.07-.07C75.47,303.45,78,299.05,79.9,294.36Z" class="cls-5"></path><path d="M87,261.71c.57,8.7-1.85,17.42-4.58,25.75-.75,2.3-1.56,4.64-2.49,6.9,1.59-7.24,2.89-14.62,2.81-22a68.49,68.49,0,0,0-2.06-28.58h.06c1.78,6.05,3.92,12,6.26,17.89Z" class="cls-5"></path><path d="M72.51,227.36A90.78,90.78,0,0,1,71,217.91a72.3,72.3,0,0,1,.26-17.27v0a59.14,59.14,0,0,1,6.08-10.51c-2.86,12.86-2.49,26.41-.06,39.4a143.17,143.17,0,0,0,3.47,14.3h-.06a68.49,68.49,0,0,1,2.06,28.58,65.66,65.66,0,0,1-2.44,10.91c-.93,3-2.32,6.15-4.77,7.89,3.65-5.93,5.21-12.87,5.44-20h0v0a70.4,70.4,0,0,0-1.31-15.08c-.06-.36-.14-.72-.21-1.08h0c-1.13-5.62-2.69-11.15-4.19-16.69h0C74.24,234.68,73.29,231,72.51,227.36Z" class="cls-5"></path><path d="M79.63,256.1a70.4,70.4,0,0,1,1.31,15.08v0h0a151.64,151.64,0,0,1-5.16,18.72c-.16.47-.33.95-.5,1.41,0,.15-.1.3-.16.44v0h0c-2,5.6-4.78,11.12-9.53,14.62a15,15,0,0,1-12.4,2.48,25.18,25.18,0,0,0,15-11.44,48.14,48.14,0,0,0,3.63-8.56c3.87-11,7.78-22.33,7.6-33.89C79.49,255.38,79.57,255.74,79.63,256.1Z" class="cls-5"></path><path d="M80.94,271.21c-.23,7.12-1.79,14.06-5.44,20h0l-.21.13c.17-.46.34-.94.5-1.41A151.64,151.64,0,0,0,80.94,271.21Z" class="cls-5"></path><path d="M73.81,237.5a86.85,86.85,0,0,1-.67,40.3,46.63,46.63,0,0,1-4,10.47c3.25-10.08,3.78-21.3,3-32-.3-4.12-.76-8.23-1.27-12.34-.2-1.63-.42-3.26-.63-4.89s-.39-3-.59-4.49a212.31,212.31,0,0,1-2-23.29l-.19,0a63.38,63.38,0,0,1,3.7-10.62A72.3,72.3,0,0,0,71,217.91a90.78,90.78,0,0,0,1.55,9.45C73,231.44,73.71,237,73.81,237.5Z" class="cls-5"></path><path d="M149.46,51c8-4.45,13.71-12.71,16.73-21.48s3.76-17.84,4.29-27" class="cls-7"></path><path d="M156.45,53.26a22.34,22.34,0,0,0,7-6.23c9.45-12.29,11.27-28.64,12-44.18,0-.5.05-1,.07-1.51" class="cls-7"></path><path d="M152.21,137.71a44.6,44.6,0,0,0,25.13-6.5c8-5.08,14.13-13.38,15.78-22.74,2.06-11.74-3-23.92-11.14-32.63a55.61,55.61,0,0,0-6.2-5.69c-.29-.24-.59-.47-.89-.69a82.25,82.25,0,0,0-15.54-9.17c-2.45-1.15-4.95-2.2-7.46-3.19a118.63,118.63,0,0,0-11.93-4,78.2,78.2,0,0,0-16.58-2.89l-.44,0a51.4,51.4,0,0,0-15.75,1.54c-10,2.64-19.31,9.59-24,18.93-5.24,10.54-.5,24.7,4.11,34.91a43.31,43.31,0,0,0,14,17.7" class="cls-7"></path><path d="M124.63,47.44c-.4.83-.79,1.68-1.16,2.54l-.09.19" class="cls-7"></path><path d="M124.63,47.44A110.25,110.25,0,0,1,146,50.1c1.2.27,2.35.56,3.49.87h0a65,65,0,0,1,7,2.29A58.57,58.57,0,0,1,174.3,64.11c.69.6,1.38,1.22,2,1.87" class="cls-7"></path><path d="M175.37,68.35l-.48,1.11" class="cls-7"></path><path d="M176.35,66c-.31.78-.64,1.58-1,2.36" class="cls-7"></path><path d="M99.09,129.05a4.68,4.68,0,0,1,.18-.48c.63-1.8,1.33-3.58,2.08-5.34.47-1.12,1-2.23,1.49-3.33" class="cls-7"></path><path d="M150.59,128.7a47.15,47.15,0,0,0-10.61-5,60.22,60.22,0,0,0-7.23-1.94c-2.37-.49-4.76-.85-7.16-1.12-4.69-.54-9.43-.73-14.17-.85l-4.48-.1a19.32,19.32,0,0,0-4.1.24" class="cls-7"></path><path d="M153.46,130.74a33.73,33.73,0,0,0-2.86-2" class="cls-7"></path><path d="M151.94,139.25c.1-.51.18-1,.27-1.54,0-.18.07-.35.1-.53q.57-3.21,1.15-6.44" class="cls-7"></path><path d="M151.94,139.25l-1.5-.53L144,136.45c-14.29-5-29.6-10.08-44.31-7.5l-.55.1" class="cls-7"></path><path d="M121.94,138.86a70,70,0,0,1-13.54-4.4A29.18,29.18,0,0,1,99.64,129l-.37-.38" class="cls-7"></path><path d="M152.74,136.5a4.15,4.15,0,0,1-.43.68" class="cls-7"></path><path d="M124.88,139.44a71.17,71.17,0,0,0,20.91.56,13.52,13.52,0,0,0,4.65-1.28" class="cls-7"></path><path d="M125.59,120.61c-4.76-11.9-7.35-24.92-5.22-37.54,2-12.17,9-23.86,19.59-30" class="cls-7"></path><path d="M159.35,60.29c.37,2,.87,4,1.24,6,2.44,13.39-1.42,27.22-7.25,39.52-3.18,6.73-7.48,13.56-13.36,17.83" class="cls-7"></path><path d="M150.59,128.7h0c1.15-.28,2.28-.6,3.4-1a41.92,41.92,0,0,0,12.64-6.51c6.17-4.75,10.85-11.64,12.16-19.32A46.14,46.14,0,0,0,178.9,90a155.24,155.24,0,0,0-3.12-19.89" class="cls-7"></path><line y2="68.34" x2="175.37" y1="68.35" x1="175.37" class="cls-7"></line><path d="M111.42,119.76a81.85,81.85,0,0,1-10.53-23,49.28,49.28,0,0,1-2-10.82,35.91,35.91,0,0,1,24-35.81l.53-.17" class="cls-7"></path><path d="M119.79,142.45a26.52,26.52,0,0,0,3.76-7.64c.06-.18.12-.36.17-.55" class="cls-7"></path><path d="M121.3,144.15q1.59-2,3.08-4c.18-.24.34-.48.5-.72a4.54,4.54,0,0,0,.88-2.3c0-1.12-.83-2.35-1.94-2.25" class="cls-7"></path><path d="M108.15,153.51c.08-.21.17-.41.27-.62s.27-.63.43-.94" class="cls-7"></path><path d="M119.79,142.45c-2.41-1.33-5.39.89-7.1,3.14a33.73,33.73,0,0,0-3.84,6.36l.36.37c.33.35.65.73,1,1.06.14.15.28.28.43.42a8.36,8.36,0,0,0,1,.74,6.72,6.72,0,0,0,1.54.77,3.89,3.89,0,0,0,.58.18,5,5,0,0,0,1.21.15,4.21,4.21,0,0,0,1.7-.35c1.74-.76,2.71-2.59,3.55-4.28a12.49,12.49,0,0,0,1.55-4.34,5.15,5.15,0,0,0-.38-2.52,3.47,3.47,0,0,0-1.29-1.57l-.22-.13" class="cls-7"></path><path d="M75.87,170.86a70.49,70.49,0,0,1,19.51-9.65c5.4-1.75,11.55-3.44,15.22-7.41" class="cls-7"></path><path d="M61.22,224.63a36.24,36.24,0,0,1-5.17-19.45c.31-10.49,5.26-20.54,12.55-28.07a55.33,55.33,0,0,1,7.26-6.24" class="cls-7"></path><path d="M63.54,232a48.21,48.21,0,0,1-2.31-7.32v0a48.62,48.62,0,0,1-.33-20.83A49.13,49.13,0,0,1,81.79,173c9.8-6.44,22.37-9.73,29.76-18.48" class="cls-7"></path><path d="M70.75,244c-3.55-3-6.74-8.42-7.21-12" class="cls-7"></path><path d="M113.09,155.31C106,163.48,95,167.58,86.12,174a57.16,57.16,0,0,0-23.37,53c.2,1.67.45,3.32.79,5h0" class="cls-7"></path><path d="M71.22,200.62a59.14,59.14,0,0,1,6.08-10.51,46.23,46.23,0,0,1,4.55-5.39c1.4-1.41,2.88-2.75,4.41-4,2.54-2.14,5.22-4.16,7.89-6.15,7.54-5.62,15.1-11.13,19.52-19" class="cls-7"></path><path d="M70.07,239.11c-4.76-6.93-5.16-17.41-2.55-27.85a63.38,63.38,0,0,1,3.7-10.62" class="cls-7"></path><path d="M84.91,234.05a91.54,91.54,0,0,1,9.24-59.51" class="cls-7"></path><path d="M90,251.44a84.41,84.41,0,0,1-3.31-9.56c-.72-2.58-1.34-5.19-1.82-7.82" class="cls-7"></path><path d="M90.52,252.56,90,251.44" class="cls-7"></path><path d="M86.26,180.69a79.76,79.76,0,0,0-2.09,61.12" class="cls-7"></path><path d="M87,261.71c.48,1.23,1,2.44,1.49,3.66,1.32,3.18,2.7,6.35,4.11,9.49" class="cls-7"></path><path d="M77.32,190l0,.11c-2.86,12.86-2.49,26.41-.06,39.4a143.17,143.17,0,0,0,3.47,14.3c1.78,6.05,3.92,12,6.26,17.89" class="cls-7"></path><path d="M80.94,271.21c-.23,7.12-1.79,14.06-5.44,20" class="cls-7"></path><path d="M79.42,255c.07.36.15.72.21,1.08a70.4,70.4,0,0,1,1.31,15.08" class="cls-7"></path><path d="M71.22,200.62v0A72.3,72.3,0,0,0,71,217.91a90.78,90.78,0,0,0,1.55,9.45c.78,3.67,1.73,7.32,2.72,11h0c1.5,5.54,3.06,11.07,4.19,16.69" class="cls-7"></path><path d="M67.71,211.3a212.31,212.31,0,0,0,2,23.29c.2,1.5.4,3,.59,4.49s.43,3.26.63,4.89c.51,4.11,1,8.22,1.27,12.34.76,10.66.23,21.88-3,32" class="cls-7"></path><path d="M69.18,288.27a46.63,46.63,0,0,0,4-10.47,86.85,86.85,0,0,0,.67-40.3c-.1-.48-.78-6.06-1.3-10.14-.29-2.22-.52-4-.59-4.26" class="cls-7"></path><path d="M75.28,291.34l.21-.13h0c2.45-1.74,3.84-4.91,4.77-7.89a65.66,65.66,0,0,0,2.44-10.91,68.49,68.49,0,0,0-2.06-28.58c-.22-.8-.47-1.59-.73-2.38" class="cls-7"></path><path d="M79.42,255h0c.18,11.56-3.73,22.92-7.6,33.89a48.14,48.14,0,0,1-3.63,8.56,25.18,25.18,0,0,1-15,11.44" class="cls-7"></path><path d="M87.37,252.38c.69,2.39,1.43,4.79,2.15,7.17.47,1.57.94,3.13,1.37,4.72a43.67,43.67,0,0,1,1.66,9.61c0,.33,0,.65,0,1h0" class="cls-7"></path><path d="M84.17,241.81v.05q1.57,5.25,3.17,10.49" class="cls-7"></path><path d="M88.46,265.37a39.81,39.81,0,0,1-.38,9.81c-1,6.57-3.43,12.87-6.06,19-2.2,5.12-5,10.63-10.23,12.63" class="cls-7"></path><path d="M70.91,307.39c.27-.21.55-.44.81-.67,3.75-3.27,6.25-7.67,8.18-12.36.93-2.26,1.74-4.6,2.49-6.9,2.73-8.33,5.15-17,4.58-25.75h0" class="cls-7"></path><path d="M84.81,233.91l.1.14h0c5.17,7.3,10.32,14.7,13.68,23A47.11,47.11,0,0,1,102,270.79c.34,3.81.42,8.45-1.2,12.11" class="cls-7"></path><path d="M86.73,241.88c1.59,2.37,3.68,4.43,5.49,6.64A40.07,40.07,0,0,1,100,264.25c1,4,1.92,9.4.54,13.68" class="cls-7"></path><path d="M95.91,290.2a3.25,3.25,0,0,0,1.92-1l.81-.72a7,7,0,0,0,1.21-1.4,8,8,0,0,0,1-4.15h0c.05-1.76-.16-3.61-.24-5h0A44.49,44.49,0,0,0,93.31,256c-1-1.55-2.18-3-3.27-4.57h0" class="cls-7"></path><path d="M98,289.94a10.39,10.39,0,0,0,.68-1.48,17.75,17.75,0,0,0,.59-9.7,46.3,46.3,0,0,0-4-10.74c-.06-.14-.13-.28-.2-.42q-3.66-7.69-7.68-15.22l0,0h0" class="cls-7"></path><path d="M53.16,308.91h0a15,15,0,0,0,12.4-2.48c4.75-3.5,7.48-9,9.53-14.62h0v0c.06-.14.11-.29.16-.44.17-.46.34-.94.5-1.41a151.64,151.64,0,0,0,5.16-18.72h0v0" class="cls-7"></path><path d="M75.86,170.87h0a36.81,36.81,0,0,1,13.65-10.37c6.21-2.71,13.45-3.87,18.9-7.6.27-.18.53-.38.79-.57" class="cls-7"></path><path d="M82.08,264.68a50.13,50.13,0,0,1,.63,7.72c.08,7.34-1.22,14.72-2.81,22-.19.92-.4,1.83-.61,2.75" class="cls-7"></path><path d="M89.11,260.81c.63,1.14,1.22,2.29,1.78,3.46a63.64,63.64,0,0,1,5.35,17.13" class="cls-7"></path><path d="M96.07,283.05c.07-.55.13-1.09.17-1.64h0a41.12,41.12,0,0,0-1.19-13.8s0,0,0,0" class="cls-7"></path><path d="M170.48,2.51a25.39,25.39,0,0,0,4.93.34h0" class="cls-7"></path><path d="M218.68,308.11c3.77,4.4,5.47,9.86,6.09,15.65a30.85,30.85,0,0,0-4.1-6.47c-.41-.54-.86-1.05-1.31-1.55-2.9-3.15-6.5-5.63-9.82-8.37a72.1,72.1,0,0,1-23.45-36.68c-1.9-7.15-2.72-14.7-6.08-21.29l1.91-1C191.26,264.7,193,285.72,207,298.21c3.73,3.35,8.18,5.9,11.48,9.66h0C218.55,308,218.61,308,218.68,308.11Z" class="cls-5"></path><path d="M195.5,311a56.73,56.73,0,0,1-9.57-6c-1.13-1.35-2.19-2.75-3.19-4.18a66.82,66.82,0,0,1-8.32-61.06v-.56a11.29,11.29,0,0,1,3.79.9l.75.34c6.78,3.18,10.66,10.59,13,17.79,2.36,7.47,3.68,15.44,8,22,3.91,6,10,10.31,14,16.27a32.6,32.6,0,0,1,4.61,11.36c-3.3-3.76-7.75-6.31-11.48-9.66-14-12.49-15.74-33.51-25.08-49.77l-1.91,1c3.36,6.59,4.18,14.14,6.08,21.29a72.1,72.1,0,0,0,23.45,36.68c3.32,2.74,6.92,5.22,9.82,8.37a51.91,51.91,0,0,1-.2,6.24,54.6,54.6,0,0,1-.94,6.33,31.05,31.05,0,0,0-3.94-7.61c-4.56-6.47-10.87-11.45-16.19-17.3a71.55,71.55,0,0,1-14.64-24.71l-.57.2c.08,9.55,5.48,18.23,11.47,25.69,1.11,1.4,2.27,2.79,3.42,4.16h0c1.34,1.59,2.67,3.18,4,4.79,1,1.88,2.37,3.64,3.45,5.48a51,51,0,0,1-9.69-8Z" class="cls-5"></path><path d="M214.28,320.7a31.05,31.05,0,0,1,3.94,7.61,39.57,39.57,0,0,1-4.05,11.13,39.17,39.17,0,0,0-1.31-6.62c-.1-.38-.22-.75-.33-1.12a41.07,41.07,0,0,0-1.49-3.92c-.37-.83-.76-1.64-1.18-2.43h0a71,71,0,0,0-8.11-11.8c-1.31-1.61-2.64-3.2-4-4.79h0c-1.15-1.37-2.31-2.76-3.42-4.16-6-7.46-11.39-16.14-11.47-25.69l.57-.2a71.55,71.55,0,0,0,14.64,24.71C203.41,309.25,209.72,314.23,214.28,320.7Z" class="cls-5"></path><path d="M190.1,216.67l-.28.17c-.4-2-.8-4.06-1.22-6.1a11.32,11.32,0,0,0-2.26-.94c.6-.59,1.17-1.19,1.72-1.81a31.23,31.23,0,0,0,6.55-11.91,30.63,30.63,0,0,0-2.84-23.47,55.64,55.64,0,0,0-6.85-8.92,35.72,35.72,0,0,1,15.73,12.06c5.88,8.25,7.34,19.83,2.41,28.67C200.12,209.7,195.35,213.53,190.1,216.67Z" class="cls-4"></path><path d="M191.77,172.61a30.63,30.63,0,0,1,2.84,23.47A31.23,31.23,0,0,1,188.06,208c-.55.62-1.12,1.22-1.72,1.81a19.49,19.49,0,0,0-5.47-.78,25.49,25.49,0,0,0,.3-5.8c-.26-8.85-1.09-17.76-3.83-26.18a47.49,47.49,0,0,0-9.21-16.65c1.4,0,2.79.1,4.18.23.92.08,1.84.2,2.76.35a42.87,42.87,0,0,1,9.85,2.72A55.64,55.64,0,0,1,191.77,172.61Z" class="cls-4"></path><path d="M190.1,216.67a6.12,6.12,0,0,1-.27,2.64,7.81,7.81,0,0,1-1.56,2.4c-3.67,4.36-9.15,6.78-14.51,8.41-.64-2.32-1.26-4.64-1.88-7-1-.88-2.68-.06-3.11,1.19a6,6,0,0,0,.38,3.84c.32,1,.63,1.93.95,2.9a129.28,129.28,0,0,1-14.22,2.35,54.29,54.29,0,0,1-8.31.14l-.71-1.53h0c.38-.32.78-.64,1.18-.94,1.23-.93,2.52-1.78,3.81-2.59,6.64-4.18,13.63-8,21.24-9.94a37.65,37.65,0,0,1,15.19-.84c.61.09,1.2.2,1.79.34-.08-.41-.16-.83-.25-1.24Z" class="cls-5"></path><path d="M189.82,216.84c.09.41.17.83.25,1.24-.59-.14-1.18-.25-1.79-.34a37.65,37.65,0,0,0-15.19.84c-7.61,1.93-14.6,5.76-21.24,9.94-1.29.81-2.58,1.66-3.81,2.59-.4.3-.8.62-1.18.94-.15-.31-.29-.62-.43-.92-1.06-2.24-2.17-4.47-3.31-6.68.36-.34.73-.67,1.1-1a57.65,57.65,0,0,1,9.68-6.89,58.28,58.28,0,0,1,24.29-7.48,26.39,26.39,0,0,1,2.68-.08,19.49,19.49,0,0,1,5.47.78,11.32,11.32,0,0,1,2.26.94C189,212.78,189.42,214.81,189.82,216.84Z" class="cls-5"></path><path d="M177.89,297.52c-14.35-11.55-20.59-32.88-13.36-49.95,1.17-2.78,2.91-5.62,5.39-7.18a7.32,7.32,0,0,1,2.6-1,7.65,7.65,0,0,1,1.91-.13v.56a66.82,66.82,0,0,0,8.32,61.06c1,1.43,2.06,2.83,3.19,4.18a55.85,55.85,0,0,1-8-7.5Z" class="cls-5"></path><path d="M181.17,203.22a25.49,25.49,0,0,1-.3,5.8,26.39,26.39,0,0,0-2.68.08,58.28,58.28,0,0,0-24.29,7.48,18.78,18.78,0,0,1-3.24-4.38c-4.79-8.49-6.27-18.54-5.61-28.26a96.15,96.15,0,0,1,4.1-20.91,67.69,67.69,0,0,1,19-2.64A47.49,47.49,0,0,1,177.34,177C180.08,185.46,180.91,194.37,181.17,203.22Z" class="cls-4"></path><path d="M178.31,235.53a12.41,12.41,0,0,1,.66,4.93l-.75-.34a11.29,11.29,0,0,0-3.79-.9,7.65,7.65,0,0,0-1.91.13,7.32,7.32,0,0,0-2.6,1,8.74,8.74,0,0,1-.61-2.49,6.14,6.14,0,0,1,1.53-4.55,4,4,0,0,1,2.71-1.36,4.34,4.34,0,0,1,.72,0A5.48,5.48,0,0,1,178.31,235.53Z" class="cls-6"></path><path d="M174.21,231.83c0,.07,0,.13.06.19a4.34,4.34,0,0,0-.72,0,4,4,0,0,0-2.71,1.36c-.24-.76-.49-1.51-.74-2.25-.32-1-.63-1.94-.95-2.9a6,6,0,0,1-.38-3.84c.43-1.25,2.13-2.07,3.11-1.19.62,2.31,1.24,4.63,1.88,7Z" class="cls-8"></path><path d="M171.38,155.92l.93,4.7c-1.39-.13-2.78-.21-4.18-.23a67.69,67.69,0,0,0-19,2.64c-1.33.37-2.66.77-4,1.2a72.76,72.76,0,0,0-6.94,2.64c-.25-1.76-.48-3.5-.71-5.26a76.44,76.44,0,0,1,13.38-4.14c1.77-.37,3.55-.69,5.34-.93,1.54-.21,3.07-.38,4.61-.51.85-.06,1.7-.12,2.56-.16A78.48,78.48,0,0,1,171.38,155.92Z" class="cls-5"></path><path d="M159.49,152a9.16,9.16,0,0,1,1.36,4.05c-1.54.13-3.07.3-4.61.51-.6-4.22-3.42-8.08-6.09-11.54-2.81-3.64-5.74-7.72-6.09-12.19a15.64,15.64,0,0,1,3.22-2.45c.18,5.41,3.34,9.44,7.17,14.13A88.29,88.29,0,0,1,159.49,152Z" class="cls-5"></path><path d="M150.66,212.2a18.78,18.78,0,0,0,3.24,4.38,57.65,57.65,0,0,0-9.68,6.89c-.65-.15-1.28-.33-1.92-.54a19.55,19.55,0,0,1-5-2.48c-6.29-4.36-10-11.61-12.1-19-1.3-4.64-2.06-9.52-1.25-14.27a33.23,33.23,0,0,1,3.4-9.37,64.67,64.67,0,0,1,4.79-7.84s0,0,0,0a54.14,54.14,0,0,1,6.07-3.1,72.76,72.76,0,0,1,6.94-2.64c1.32-.43,2.65-.83,4-1.2a96.15,96.15,0,0,0-4.1,20.91C144.39,193.66,145.87,203.71,150.66,212.2Z" class="cls-4"></path><path d="M143.12,224.45c1.14,2.21,2.25,4.44,3.31,6.68-12.54-.09-24.2-8.23-29.07-21.2a33,33,0,0,1,6.49-33.29,37.16,37.16,0,0,1,8.3-6.65,64.67,64.67,0,0,0-4.79,7.84,33.23,33.23,0,0,0-3.4,9.37c-.81,4.75,0,9.63,1.25,14.27,2.09,7.37,5.81,14.62,12.1,19a19.55,19.55,0,0,0,5,2.48c.64.21,1.27.39,1.92.54C143.85,223.78,143.48,224.11,143.12,224.45Z" class="cls-4"></path><path d="M132.15,170a37.16,37.16,0,0,0-8.3,6.65,33,33,0,0,0-6.49,33.29c4.87,13,16.53,21.11,29.07,21.2" class="cls-7"></path><path d="M189.82,216.84l.28-.17c5.25-3.14,10-7,13-12.25,4.93-8.84,3.47-20.42-2.41-28.67a35.72,35.72,0,0,0-15.73-12.06,42.87,42.87,0,0,0-9.85-2.72c-.92-.15-1.84-.27-2.76-.35-1.39-.13-2.78-.21-4.18-.23a67.69,67.69,0,0,0-19,2.64c-1.33.37-2.66.77-4,1.2a72.76,72.76,0,0,0-6.94,2.64,54.14,54.14,0,0,0-6.07,3.1" class="cls-7"></path><path d="M146.86,232.06l.71,1.53" class="cls-7"></path><path d="M143.12,224.45c1.14,2.21,2.25,4.44,3.31,6.68.14.3.28.61.43.92" class="cls-7"></path><path d="M143.12,224.45c.36-.34.73-.67,1.1-1a57.65,57.65,0,0,1,9.68-6.89,58.28,58.28,0,0,1,24.29-7.48,26.39,26.39,0,0,1,2.68-.08,19.49,19.49,0,0,1,5.47.78,11.32,11.32,0,0,1,2.26.94" class="cls-7"></path><path d="M190.07,218.08c-.08-.41-.16-.83-.25-1.24-.4-2-.8-4.06-1.22-6.1" class="cls-7"></path><path d="M146.86,232.06h0c.38-.32.78-.64,1.18-.94,1.23-.93,2.52-1.78,3.81-2.59,6.64-4.18,13.63-8,21.24-9.94a37.65,37.65,0,0,1,15.19-.84c.61.09,1.2.2,1.79.34" class="cls-7"></path><path d="M189.73,215.83a1.49,1.49,0,0,1,.37.84,6.12,6.12,0,0,1-.27,2.64,7.81,7.81,0,0,1-1.56,2.4c-3.67,4.36-9.15,6.78-14.51,8.41" class="cls-7"></path><path d="M147.57,233.59a54.29,54.29,0,0,0,8.31-.14,129.28,129.28,0,0,0,14.22-2.35" class="cls-7"></path><path d="M149.15,163a96.15,96.15,0,0,0-4.1,20.91c-.66,9.72.82,19.77,5.61,28.26a18.78,18.78,0,0,0,3.24,4.38" class="cls-7"></path><path d="M168.13,160.39A47.49,47.49,0,0,1,177.34,177c2.74,8.42,3.57,17.33,3.83,26.18a25.49,25.49,0,0,1-.3,5.8" class="cls-7"></path><path d="M132.16,170s0,0,0,0a64.67,64.67,0,0,0-4.79,7.84,33.23,33.23,0,0,0-3.4,9.37c-.81,4.75,0,9.63,1.25,14.27,2.09,7.37,5.81,14.62,12.1,19a19.55,19.55,0,0,0,5,2.48c.64.21,1.27.39,1.92.54" class="cls-7"></path><path d="M186.34,209.8c.6-.59,1.17-1.19,1.72-1.81a31.23,31.23,0,0,0,6.55-11.91,30.63,30.63,0,0,0-2.84-23.47,55.64,55.64,0,0,0-6.85-8.92" class="cls-7"></path><path d="M170.84,233.35c-.24-.76-.49-1.51-.74-2.25-.32-1-.63-1.94-.95-2.9a6,6,0,0,1-.38-3.84c.43-1.25,2.13-2.07,3.11-1.19.62,2.31,1.24,4.63,1.88,7l.45,1.71c0,.07,0,.13.06.19" class="cls-7"></path><path d="M169.92,240.39a8.74,8.74,0,0,1-.61-2.49,6.14,6.14,0,0,1,1.53-4.55,4,4,0,0,1,2.71-1.36,4.34,4.34,0,0,1,.72,0,5.48,5.48,0,0,1,4,3.51,12.41,12.41,0,0,1,.66,4.93" class="cls-7"></path><path d="M218.48,307.87a32.6,32.6,0,0,0-4.61-11.36c-4-6-10.07-10.28-14-16.27-4.28-6.55-5.6-14.52-8-22-2.3-7.2-6.18-14.61-13-17.79l-.75-.34a11.29,11.29,0,0,0-3.79-.9,7.65,7.65,0,0,0-1.91.13,7.32,7.32,0,0,0-2.6,1c-2.48,1.56-4.22,4.4-5.39,7.18-7.23,17.07-1,38.4,13.36,49.95" class="cls-7"></path><path d="M167.61,253.13c-3.52,11.28-2,23.9,3.44,34.39a52.21,52.21,0,0,0,6.84,10h0a55.85,55.85,0,0,0,8,7.5,56.73,56.73,0,0,0,9.57,6" class="cls-7"></path><path d="M185.93,305c-1.13-1.35-2.19-2.75-3.19-4.18a66.82,66.82,0,0,1-8.32-61.06" class="cls-7"></path><path d="M176.83,253.36c-1.75,20.3,4.67,42.94,18.67,57.63h0a51,51,0,0,0,9.69,8" class="cls-7"></path><path d="M224.77,323.76c-.62-5.79-2.32-11.25-6.09-15.65-.07-.08-.13-.16-.2-.23h0c-3.3-3.76-7.75-6.31-11.48-9.66-14-12.49-15.74-33.51-25.08-49.77-.61-1.08-1.27-2.15-2-3.19" class="cls-7"></path><path d="M180,249.4c3.36,6.59,4.18,14.14,6.08,21.29a72.1,72.1,0,0,0,23.45,36.68c3.32,2.74,6.92,5.22,9.82,8.37.45.5.9,1,1.31,1.55a30.85,30.85,0,0,1,4.1,6.47h0" class="cls-7"></path><path d="M180.7,268.25a70.65,70.65,0,0,0,2.75,10.44,71.55,71.55,0,0,0,14.64,24.71c5.32,5.85,11.63,10.83,16.19,17.3a31.05,31.05,0,0,1,3.94,7.61" class="cls-7"></path><path d="M182.88,278.89c.08,9.55,5.48,18.23,11.47,25.69,1.11,1.4,2.27,2.79,3.42,4.16h0c1.34,1.59,2.67,3.18,4,4.79a71,71,0,0,1,8.11,11.8" class="cls-7"></path><path d="M138.23,166.87c-.25-1.76-.48-3.5-.71-5.26" class="cls-7"></path><path d="M172.31,160.62l-.93-4.7" class="cls-7"></path><path d="M171.38,155.92a78.48,78.48,0,0,0-8,0c-.86,0-1.71.1-2.56.16-1.54.13-3.07.3-4.61.51-1.79.24-3.57.56-5.34.93a76.44,76.44,0,0,0-13.38,4.14" class="cls-7"></path><path d="M147.28,130.36c.18,5.41,3.34,9.44,7.17,14.13a88.29,88.29,0,0,1,5,7.49,9.16,9.16,0,0,1,1.36,4.05" class="cls-7"></path><path d="M144.06,132.81c.35,4.47,3.28,8.55,6.09,12.19,2.67,3.46,5.49,7.32,6.09,11.54" class="cls-7"></path><path d="M147.28,130.36a15.64,15.64,0,0,0-3.22,2.45" class="cls-7"></path></g></g><circle r="130" cy="142.33" cx="141.42" class="cls-9"></circle></svg>